# This file uses centimeters as units for non-parametric coordinates.

g default
v 2.286486 1.980269 -0.947092
v 1.750001 1.980269 -1.749999
v 0.947094 1.980269 -2.286484
v 0.000001 1.980269 -2.474874
v -0.947092 1.980269 -2.286486
v -1.749999 1.980269 -1.750001
v -2.286485 1.980269 -0.947094
v -2.474874 1.980269 -0.000001
v -2.286485 1.980269 0.947092
v -1.750000 1.980269 1.750000
v -0.947094 1.980269 2.286485
v -0.000000 1.980269 2.474874
v 0.947093 1.980269 2.286485
v 1.750000 1.980269 1.750000
v 2.286485 1.980269 0.947093
v 2.474874 1.980269 0.000000
v 2.688623 2.510647 -1.113662
v 2.057783 2.510647 -2.057781
v 1.113665 2.510647 -2.688622
v 0.000001 2.510647 -2.910144
v -1.113662 2.510647 -2.688623
v -2.057781 2.510647 -2.057783
v -2.688622 2.510647 -1.113665
v -2.910144 2.510647 -0.000001
v -2.688623 2.510647 1.113663
v -2.057783 2.510647 2.057782
v -1.113664 2.510647 2.688622
v -0.000000 2.510647 2.910144
v 1.113663 2.510647 2.688622
v 2.057782 2.510647 2.057783
v 2.688622 2.510647 1.113664
v 2.910144 2.510647 0.000000
v 2.987437 3.115751 -1.237435
v 2.286486 3.115751 -2.286484
v 1.237438 3.115751 -2.987436
v 0.000002 3.115751 -3.233578
v -1.237435 3.115751 -2.987437
v -2.286484 3.115751 -2.286486
v -2.987436 3.115751 -1.237438
v -3.233578 3.115751 -0.000001
v -2.987437 3.115751 1.237436
v -2.286486 3.115751 2.286484
v -1.237437 3.115751 2.987437
v -0.000000 3.115751 3.233578
v 1.237436 3.115751 2.987437
v 2.286485 3.115751 2.286485
v 2.987437 3.115751 1.237437
v 3.233578 3.115751 0.000000
v 3.171447 3.772327 -1.313654
v 2.427321 3.772327 -2.427318
v 1.313658 3.772327 -3.171445
v 0.000002 3.772327 -3.432748
v -1.313654 3.772327 -3.171446
v -2.427319 3.772327 -2.427320
v -3.171445 3.772327 -1.313657
v -3.432748 3.772327 -0.000001
v -3.171446 3.772327 1.313655
v -2.427320 3.772327 2.427319
v -1.313656 3.772327 3.171446
v -0.000001 3.772327 3.432748
v 1.313655 3.772327 3.171446
v 2.427319 3.772327 2.427320
v 3.171446 3.772327 1.313656
v 3.432748 3.772327 0.000000
v 3.233579 4.455143 -1.339390
v 2.474875 4.455143 -2.474872
v 1.339394 4.455143 -3.233577
v 0.000002 4.455143 -3.500000
v -1.339390 4.455143 -3.233579
v -2.474873 4.455143 -2.474875
v -3.233578 4.455143 -1.339393
v -3.500000 4.455143 -0.000001
v -3.233579 4.455143 1.339391
v -2.474874 4.455143 2.474873
v -1.339393 4.455143 3.233578
v -0.000001 4.455143 3.500000
v 1.339392 4.455143 3.233578
v 2.474874 4.455143 2.474874
v 3.233578 4.455143 1.339392
v 3.500000 4.455143 0.000000
v 3.171447 5.137959 -1.313654
v 2.427321 5.137959 -2.427318
v 1.313658 5.137959 -3.171445
v 0.000002 5.137959 -3.432748
v -1.313654 5.137959 -3.171446
v -2.427319 5.137959 -2.427320
v -3.171445 5.137959 -1.313657
v -3.432748 5.137959 -0.000001
v -3.171446 5.137959 1.313655
v -2.427320 5.137959 2.427319
v -1.313656 5.137959 3.171446
v -0.000001 5.137959 3.432748
v 1.313655 5.137959 3.171446
v 2.427319 5.137959 2.427320
v 3.171446 5.137959 1.313656
v 3.432748 5.137959 0.000000
v 2.987437 5.794535 -1.237435
v 2.286486 5.794535 -2.286484
v 1.237438 5.794535 -2.987436
v 0.000002 5.794535 -3.233578
v -1.237435 5.794535 -2.987437
v -2.286484 5.794535 -2.286486
v -2.987436 5.794535 -1.237438
v -3.233578 5.794535 -0.000001
v -2.987437 5.794535 1.237436
v -2.286486 5.794535 2.286484
v -1.237437 5.794535 2.987437
v -0.000000 5.794535 3.233578
v 1.237436 5.794535 2.987437
v 2.286485 5.794535 2.286485
v 2.987437 5.794535 1.237437
v 3.233578 5.794535 0.000000
v 2.688623 6.399639 -1.113662
v 2.057783 6.399639 -2.057781
v 1.113665 6.399639 -2.688622
v 0.000001 6.399639 -2.910144
v -1.113662 6.399639 -2.688623
v -2.057781 6.399639 -2.057783
v -2.688622 6.399639 -1.113665
v -2.910144 6.399639 -0.000001
v -2.688623 6.399639 1.113663
v -2.057783 6.399639 2.057782
v -1.113664 6.399639 2.688622
v -0.000000 6.399639 2.910144
v 1.113663 6.399639 2.688622
v 2.057782 6.399639 2.057783
v 2.688622 6.399639 1.113664
v 2.910144 6.399639 0.000000
v 2.286486 6.930017 -0.947092
v 1.750001 6.930017 -1.749999
v 0.947094 6.930017 -2.286484
v 0.000001 6.930017 -2.474874
v -0.947092 6.930017 -2.286486
v -1.749999 6.930017 -1.750001
v -2.286485 6.930017 -0.947094
v -2.474874 6.930017 -0.000001
v -2.286485 6.930017 0.947092
v -1.750000 6.930017 1.750000
v -0.947094 6.930017 2.286485
v -0.000000 6.930017 2.474874
v 0.947093 6.930017 2.286485
v 1.750000 6.930017 1.750000
v 2.286485 6.930017 0.947093
v 2.474874 6.930017 0.000000
v 1.796480 7.365287 -0.744125
v 1.374967 7.365287 -1.374965
v 0.744127 7.365287 -1.796479
v 0.000001 7.365287 -1.944496
v -0.744125 7.365287 -1.796480
v -1.374966 7.365287 -1.374967
v -1.796480 7.365287 -0.744127
v -1.944496 7.365287 -0.000001
v -1.796480 7.365287 0.744126
v -1.374967 7.365287 1.374966
v -0.744127 7.365287 1.796480
v -0.000000 7.365287 1.944496
v 0.744126 7.365287 1.796480
v 1.374966 7.365287 1.374966
v 1.796480 7.365287 0.744126
v 1.944496 7.365287 0.000000
v 1.237437 7.688721 -0.512562
v 0.947094 7.688721 -0.947093
v 0.512564 7.688721 -1.237437
v 0.000001 7.688721 -1.339392
v -0.512563 7.688721 -1.237437
v -0.947093 7.688721 -0.947094
v -1.237437 7.688721 -0.512564
v -1.339392 7.688721 -0.000000
v -1.237437 7.688721 0.512563
v -0.947093 7.688721 0.947093
v -0.512563 7.688721 1.237437
v -0.000000 7.688721 1.339392
v 0.512563 7.688721 1.237437
v 0.947093 7.688721 0.947093
v 1.237437 7.688721 0.512563
v 1.339392 7.688721 0.000000
v 0.630840 7.887891 -0.261302
v 0.482824 7.887891 -0.482824
v 0.261303 7.887891 -0.630840
v 0.000000 7.887891 -0.682816
v -0.261302 7.887891 -0.630840
v -0.482824 7.887891 -0.482824
v -0.630840 7.887891 -0.261303
v -0.682816 7.887891 -0.000000
v -0.630840 7.887891 0.261302
v -0.482824 7.887891 0.482824
v -0.261303 7.887891 0.630840
v -0.000000 7.887891 0.682816
v 0.261302 7.887891 0.630840
v 0.482824 7.887891 0.482824
v 0.630840 7.887891 0.261302
v 0.682816 7.887891 0.000000
v 0.000000 7.955143 0.000000
vt 0.000000 0.250000
vt 0.062500 0.250000
vt 0.125000 0.250000
vt 0.187500 0.250000
vt 0.250000 0.250000
vt 0.312500 0.250000
vt 0.375000 0.250000
vt 0.437500 0.250000
vt 0.500000 0.250000
vt 0.562500 0.250000
vt 0.625000 0.250000
vt 0.687500 0.250000
vt 0.750000 0.250000
vt 0.812500 0.250000
vt 0.875000 0.250000
vt 0.937500 0.250000
vt 1.000000 0.250000
vt 0.000000 0.312500
vt 0.062500 0.312500
vt 0.125000 0.312500
vt 0.187500 0.312500
vt 0.250000 0.312500
vt 0.312500 0.312500
vt 0.375000 0.312500
vt 0.437500 0.312500
vt 0.500000 0.312500
vt 0.562500 0.312500
vt 0.625000 0.312500
vt 0.687500 0.312500
vt 0.750000 0.312500
vt 0.812500 0.312500
vt 0.875000 0.312500
vt 0.937500 0.312500
vt 1.000000 0.312500
vt 0.000000 0.375000
vt 0.062500 0.375000
vt 0.125000 0.375000
vt 0.187500 0.375000
vt 0.250000 0.375000
vt 0.312500 0.375000
vt 0.375000 0.375000
vt 0.437500 0.375000
vt 0.500000 0.375000
vt 0.562500 0.375000
vt 0.625000 0.375000
vt 0.687500 0.375000
vt 0.750000 0.375000
vt 0.812500 0.375000
vt 0.875000 0.375000
vt 0.937500 0.375000
vt 1.000000 0.375000
vt 0.000000 0.437500
vt 0.062500 0.437500
vt 0.125000 0.437500
vt 0.187500 0.437500
vt 0.250000 0.437500
vt 0.312500 0.437500
vt 0.375000 0.437500
vt 0.437500 0.437500
vt 0.500000 0.437500
vt 0.562500 0.437500
vt 0.625000 0.437500
vt 0.687500 0.437500
vt 0.750000 0.437500
vt 0.812500 0.437500
vt 0.875000 0.437500
vt 0.937500 0.437500
vt 1.000000 0.437500
vt 0.000000 0.500000
vt 0.062500 0.500000
vt 0.125000 0.500000
vt 0.187500 0.500000
vt 0.250000 0.500000
vt 0.312500 0.500000
vt 0.375000 0.500000
vt 0.437500 0.500000
vt 0.500000 0.500000
vt 0.562500 0.500000
vt 0.625000 0.500000
vt 0.687500 0.500000
vt 0.750000 0.500000
vt 0.812500 0.500000
vt 0.875000 0.500000
vt 0.937500 0.500000
vt 1.000000 0.500000
vt 0.000000 0.562500
vt 0.062500 0.562500
vt 0.125000 0.562500
vt 0.187500 0.562500
vt 0.250000 0.562500
vt 0.312500 0.562500
vt 0.375000 0.562500
vt 0.437500 0.562500
vt 0.500000 0.562500
vt 0.562500 0.562500
vt 0.625000 0.562500
vt 0.687500 0.562500
vt 0.750000 0.562500
vt 0.812500 0.562500
vt 0.875000 0.562500
vt 0.937500 0.562500
vt 1.000000 0.562500
vt 0.000000 0.625000
vt 0.062500 0.625000
vt 0.125000 0.625000
vt 0.187500 0.625000
vt 0.250000 0.625000
vt 0.312500 0.625000
vt 0.375000 0.625000
vt 0.437500 0.625000
vt 0.500000 0.625000
vt 0.562500 0.625000
vt 0.625000 0.625000
vt 0.687500 0.625000
vt 0.750000 0.625000
vt 0.812500 0.625000
vt 0.875000 0.625000
vt 0.937500 0.625000
vt 1.000000 0.625000
vt 0.000000 0.687500
vt 0.062500 0.687500
vt 0.125000 0.687500
vt 0.187500 0.687500
vt 0.250000 0.687500
vt 0.312500 0.687500
vt 0.375000 0.687500
vt 0.437500 0.687500
vt 0.500000 0.687500
vt 0.562500 0.687500
vt 0.625000 0.687500
vt 0.687500 0.687500
vt 0.750000 0.687500
vt 0.812500 0.687500
vt 0.875000 0.687500
vt 0.937500 0.687500
vt 1.000000 0.687500
vt 0.000000 0.750000
vt 0.062500 0.750000
vt 0.125000 0.750000
vt 0.187500 0.750000
vt 0.250000 0.750000
vt 0.312500 0.750000
vt 0.375000 0.750000
vt 0.437500 0.750000
vt 0.500000 0.750000
vt 0.562500 0.750000
vt 0.625000 0.750000
vt 0.687500 0.750000
vt 0.750000 0.750000
vt 0.812500 0.750000
vt 0.875000 0.750000
vt 0.937500 0.750000
vt 1.000000 0.750000
vt 0.000000 0.812500
vt 0.062500 0.812500
vt 0.125000 0.812500
vt 0.187500 0.812500
vt 0.250000 0.812500
vt 0.312500 0.812500
vt 0.375000 0.812500
vt 0.437500 0.812500
vt 0.500000 0.812500
vt 0.562500 0.812500
vt 0.625000 0.812500
vt 0.687500 0.812500
vt 0.750000 0.812500
vt 0.812500 0.812500
vt 0.875000 0.812500
vt 0.937500 0.812500
vt 1.000000 0.812500
vt 0.000000 0.875000
vt 0.062500 0.875000
vt 0.125000 0.875000
vt 0.187500 0.875000
vt 0.250000 0.875000
vt 0.312500 0.875000
vt 0.375000 0.875000
vt 0.437500 0.875000
vt 0.500000 0.875000
vt 0.562500 0.875000
vt 0.625000 0.875000
vt 0.687500 0.875000
vt 0.750000 0.875000
vt 0.812500 0.875000
vt 0.875000 0.875000
vt 0.937500 0.875000
vt 1.000000 0.875000
vt 0.000000 0.937500
vt 0.062500 0.937500
vt 0.125000 0.937500
vt 0.187500 0.937500
vt 0.250000 0.937500
vt 0.312500 0.937500
vt 0.375000 0.937500
vt 0.437500 0.937500
vt 0.500000 0.937500
vt 0.562500 0.937500
vt 0.625000 0.937500
vt 0.687500 0.937500
vt 0.750000 0.937500
vt 0.812500 0.937500
vt 0.875000 0.937500
vt 0.937500 0.937500
vt 1.000000 0.937500
vt 0.031250 1.000000
vt 0.093750 1.000000
vt 0.156250 1.000000
vt 0.218750 1.000000
vt 0.281250 1.000000
vt 0.343750 1.000000
vt 0.406250 1.000000
vt 0.468750 1.000000
vt 0.531250 1.000000
vt 0.593750 1.000000
vt 0.656250 1.000000
vt 0.718750 1.000000
vt 0.781250 1.000000
vt 0.843750 1.000000
vt 0.906250 1.000000
vt 0.968750 1.000000
vn -0.714168 0.634393 0.295818
vn -0.774920 0.544490 0.320982
vn -0.593098 0.544490 0.593098
vn -0.546601 0.634393 0.546601
vn -0.320983 0.544490 0.774920
vn -0.295819 0.634393 0.714168
vn -0.000000 0.544490 0.838767
vn -0.000000 0.634393 0.773010
vn 0.320982 0.544490 0.774920
vn 0.295818 0.634393 0.714169
vn 0.593098 0.544490 0.593098
vn 0.546601 0.634393 0.546601
vn 0.774920 0.544490 0.320983
vn 0.714169 0.634393 0.295819
vn 0.838767 0.544490 0.000000
vn 0.773011 0.634393 0.000000
vn 0.774920 0.544490 -0.320982
vn 0.714169 0.634393 -0.295818
vn 0.593098 0.544490 -0.593098
vn 0.546601 0.634393 -0.546601
vn 0.320982 0.544490 -0.774920
vn 0.295818 0.634393 -0.714169
vn 0.000000 0.544490 -0.838767
vn 0.000000 0.634393 -0.773010
vn -0.320982 0.544490 -0.774920
vn -0.295818 0.634393 -0.714169
vn -0.593098 0.544490 -0.593098
vn -0.546601 0.634393 -0.546601
vn -0.774920 0.544490 -0.320982
vn -0.714169 0.634393 -0.295818
vn -0.838767 0.544490 -0.000000
vn -0.773010 0.634393 -0.000000
vn -0.856603 0.374615 0.354816
vn -0.655616 0.374615 0.655615
vn -0.354817 0.374615 0.856603
vn -0.000000 0.374615 0.927181
vn 0.354816 0.374615 0.856603
vn 0.655615 0.374615 0.655616
vn 0.856603 0.374615 0.354817
vn 0.927181 0.374615 0.000000
vn 0.856603 0.374615 -0.354816
vn 0.655616 0.374615 -0.655616
vn 0.354817 0.374615 -0.856603
vn 0.000000 0.374615 -0.927181
vn -0.354817 0.374615 -0.856603
vn -0.655616 0.374615 -0.655616
vn -0.856603 0.374615 -0.354817
vn -0.927181 0.374615 -0.000000
vn -0.906900 0.190840 0.375650
vn -0.694111 0.190840 0.694111
vn -0.375651 0.190840 0.906900
vn -0.000000 0.190840 0.981621
vn 0.375650 0.190840 0.906900
vn 0.694111 0.190840 0.694111
vn 0.906900 0.190840 0.375651
vn 0.981621 0.190840 0.000000
vn 0.906900 0.190840 -0.375650
vn 0.694111 0.190840 -0.694111
vn 0.375650 0.190840 -0.906900
vn 0.000000 0.190840 -0.981621
vn -0.375650 0.190840 -0.906900
vn -0.694111 0.190840 -0.694111
vn -0.906900 0.190840 -0.375650
vn -0.981621 0.190840 -0.000000
vn -0.923880 0.000000 0.382683
vn -0.707107 -0.000000 0.707106
vn -0.382684 0.000000 0.923879
vn -0.000001 0.000000 1.000000
vn 0.382683 0.000000 0.923880
vn 0.707106 -0.000000 0.707107
vn 0.923879 0.000000 0.382684
vn 1.000000 0.000000 0.000000
vn 0.923880 0.000000 -0.382683
vn 0.707107 -0.000000 -0.707107
vn 0.382684 0.000000 -0.923880
vn 0.000000 0.000000 -1.000000
vn -0.382683 0.000000 -0.923880
vn -0.707107 0.000000 -0.707107
vn -0.923880 0.000000 -0.382683
vn -1.000000 0.000000 -0.000000
vn -0.906900 -0.190840 0.375650
vn -0.694111 -0.190840 0.694111
vn -0.375651 -0.190840 0.906900
vn -0.000001 -0.190840 0.981621
vn 0.375650 -0.190840 0.906900
vn 0.694111 -0.190840 0.694111
vn 0.906900 -0.190840 0.375651
vn 0.981621 -0.190840 0.000000
vn 0.906900 -0.190840 -0.375650
vn 0.694111 -0.190840 -0.694111
vn 0.375650 -0.190840 -0.906900
vn 0.000000 -0.190840 -0.981621
vn -0.375650 -0.190840 -0.906900
vn -0.694111 -0.190840 -0.694111
vn -0.906900 -0.190840 -0.375650
vn -0.981621 -0.190840 -0.000000
vn -0.856603 -0.374615 0.354817
vn -0.655616 -0.374615 0.655615
vn -0.354817 -0.374615 0.856603
vn -0.000001 -0.374615 0.927181
vn 0.354816 -0.374615 0.856603
vn 0.655615 -0.374615 0.655616
vn 0.856603 -0.374615 0.354817
vn 0.927181 -0.374615 0.000000
vn 0.856603 -0.374615 -0.354817
vn 0.655616 -0.374615 -0.655616
vn 0.354817 -0.374615 -0.856603
vn 0.000000 -0.374615 -0.927181
vn -0.354816 -0.374615 -0.856603
vn -0.655616 -0.374615 -0.655616
vn -0.856603 -0.374615 -0.354817
vn -0.927181 -0.374615 -0.000000
vn -0.774920 -0.544490 0.320982
vn -0.593098 -0.544490 0.593098
vn -0.320983 -0.544490 0.774920
vn -0.000000 -0.544490 0.838767
vn 0.320982 -0.544490 0.774920
vn 0.593098 -0.544490 0.593098
vn 0.774920 -0.544490 0.320983
vn 0.838767 -0.544490 0.000000
vn 0.774920 -0.544490 -0.320982
vn 0.593098 -0.544490 -0.593098
vn 0.320983 -0.544490 -0.774920
vn 0.000000 -0.544490 -0.838767
vn -0.320982 -0.544490 -0.774920
vn -0.593098 -0.544490 -0.593098
vn -0.774920 -0.544490 -0.320982
vn -0.838767 -0.544490 -0.000000
vn -0.665095 -0.694084 0.275491
vn -0.509042 -0.694084 0.509042
vn -0.275492 -0.694084 0.665095
vn -0.000000 -0.694084 0.719894
vn 0.275491 -0.694084 0.665095
vn 0.509042 -0.694084 0.509042
vn 0.665095 -0.694084 0.275492
vn 0.719894 -0.694084 0.000000
vn 0.665095 -0.694084 -0.275491
vn 0.509042 -0.694084 -0.509041
vn 0.275492 -0.694084 -0.665095
vn 0.000000 -0.694084 -0.719894
vn -0.275492 -0.694084 -0.665095
vn -0.509042 -0.694084 -0.509042
vn -0.665095 -0.694084 -0.275492
vn -0.719894 -0.694084 -0.000000
vn -0.531851 -0.817681 0.220300
vn -0.407062 -0.817681 0.407061
vn -0.220300 -0.817681 0.531851
vn -0.000000 -0.817681 0.575672
vn 0.220300 -0.817681 0.531851
vn 0.407061 -0.817681 0.407062
vn 0.531851 -0.817681 0.220300
vn 0.575672 -0.817681 -0.000000
vn 0.531852 -0.817681 -0.220300
vn 0.407062 -0.817681 -0.407061
vn 0.220300 -0.817681 -0.531851
vn 0.000000 -0.817681 -0.575672
vn -0.220300 -0.817681 -0.531851
vn -0.407061 -0.817681 -0.407061
vn -0.531851 -0.817681 -0.220300
vn -0.575672 -0.817681 0.000000
vn -0.382229 -0.910403 0.158325
vn -0.292546 -0.910403 0.292545
vn -0.158325 -0.910403 0.382229
vn -0.000000 -0.910403 0.413722
vn 0.158324 -0.910403 0.382229
vn 0.292546 -0.910403 0.292546
vn 0.382229 -0.910403 0.158325
vn 0.413722 -0.910403 -0.000000
vn 0.382229 -0.910403 -0.158324
vn 0.292546 -0.910403 -0.292546
vn 0.158325 -0.910403 -0.382230
vn 0.000000 -0.910403 -0.413722
vn -0.158325 -0.910403 -0.382229
vn -0.292546 -0.910403 -0.292546
vn -0.382229 -0.910403 -0.158325
vn -0.413722 -0.910403 0.000000
vn -0.231816 -0.968009 0.096021
vn -0.177424 -0.968009 0.177424
vn -0.096021 -0.968009 0.231815
vn -0.000000 -0.968009 0.250916
vn 0.096021 -0.968009 0.231816
vn 0.177424 -0.968009 0.177424
vn 0.231816 -0.968009 0.096021
vn 0.250915 -0.968009 0.000000
vn 0.231816 -0.968009 -0.096021
vn 0.177424 -0.968009 -0.177424
vn 0.096021 -0.968009 -0.231816
vn 0.000000 -0.968009 -0.250915
vn -0.096021 -0.968009 -0.231816
vn -0.177424 -0.968009 -0.177424
vn -0.231816 -0.968009 -0.096021
vn -0.250915 -0.968009 -0.000000
vn 0.000000 -1.000000 -0.000000
s 1
g dome
f 1/1/1 17/18/2 18/19/3 2/2/4
f 2/2/4 18/19/3 19/20/5 3/3/6
f 3/3/6 19/20/5 20/21/7 4/4/8
f 4/4/8 20/21/7 21/22/9 5/5/10
f 5/5/10 21/22/9 22/23/11 6/6/12
f 6/6/12 22/23/11 23/24/13 7/7/14
f 7/7/14 23/24/13 24/25/15 8/8/16
f 8/8/16 24/25/15 25/26/17 9/9/18
f 9/9/18 25/26/17 26/27/19 10/10/20
f 10/10/20 26/27/19 27/28/21 11/11/22
f 11/11/22 27/28/21 28/29/23 12/12/24
f 12/12/24 28/29/23 29/30/25 13/13/26
f 13/13/26 29/30/25 30/31/27 14/14/28
f 14/14/28 30/31/27 31/32/29 15/15/30
f 15/15/30 31/32/29 32/33/31 16/16/32
f 16/16/32 32/33/31 17/34/2 1/17/1
f 17/18/2 33/35/33 34/36/34 18/19/3
f 18/19/3 34/36/34 35/37/35 19/20/5
f 19/20/5 35/37/35 36/38/36 20/21/7
f 20/21/7 36/38/36 37/39/37 21/22/9
f 21/22/9 37/39/37 38/40/38 22/23/11
f 22/23/11 38/40/38 39/41/39 23/24/13
f 23/24/13 39/41/39 40/42/40 24/25/15
f 24/25/15 40/42/40 41/43/41 25/26/17
f 25/26/17 41/43/41 42/44/42 26/27/19
f 26/27/19 42/44/42 43/45/43 27/28/21
f 27/28/21 43/45/43 44/46/44 28/29/23
f 28/29/23 44/46/44 45/47/45 29/30/25
f 29/30/25 45/47/45 46/48/46 30/31/27
f 30/31/27 46/48/46 47/49/47 31/32/29
f 31/32/29 47/49/47 48/50/48 32/33/31
f 32/33/31 48/50/48 33/51/33 17/34/2
f 33/35/33 49/52/49 50/53/50 34/36/34
f 34/36/34 50/53/50 51/54/51 35/37/35
f 35/37/35 51/54/51 52/55/52 36/38/36
f 36/38/36 52/55/52 53/56/53 37/39/37
f 37/39/37 53/56/53 54/57/54 38/40/38
f 38/40/38 54/57/54 55/58/55 39/41/39
f 39/41/39 55/58/55 56/59/56 40/42/40
f 40/42/40 56/59/56 57/60/57 41/43/41
f 41/43/41 57/60/57 58/61/58 42/44/42
f 42/44/42 58/61/58 59/62/59 43/45/43
f 43/45/43 59/62/59 60/63/60 44/46/44
f 44/46/44 60/63/60 61/64/61 45/47/45
f 45/47/45 61/64/61 62/65/62 46/48/46
f 46/48/46 62/65/62 63/66/63 47/49/47
f 47/49/47 63/66/63 64/67/64 48/50/48
f 48/50/48 64/67/64 49/68/49 33/51/33
f 49/52/49 65/69/65 66/70/66 50/53/50
f 50/53/50 66/70/66 67/71/67 51/54/51
f 51/54/51 67/71/67 68/72/68 52/55/52
f 52/55/52 68/72/68 69/73/69 53/56/53
f 53/56/53 69/73/69 70/74/70 54/57/54
f 54/57/54 70/74/70 71/75/71 55/58/55
f 55/58/55 71/75/71 72/76/72 56/59/56
f 56/59/56 72/76/72 73/77/73 57/60/57
f 57/60/57 73/77/73 74/78/74 58/61/58
f 58/61/58 74/78/74 75/79/75 59/62/59
f 59/62/59 75/79/75 76/80/76 60/63/60
f 60/63/60 76/80/76 77/81/77 61/64/61
f 61/64/61 77/81/77 78/82/78 62/65/62
f 62/65/62 78/82/78 79/83/79 63/66/63
f 63/66/63 79/83/79 80/84/80 64/67/64
f 64/67/64 80/84/80 65/85/65 49/68/49
f 65/69/65 81/86/81 82/87/82 66/70/66
f 66/70/66 82/87/82 83/88/83 67/71/67
f 67/71/67 83/88/83 84/89/84 68/72/68
f 68/72/68 84/89/84 85/90/85 69/73/69
f 69/73/69 85/90/85 86/91/86 70/74/70
f 70/74/70 86/91/86 87/92/87 71/75/71
f 71/75/71 87/92/87 88/93/88 72/76/72
f 72/76/72 88/93/88 89/94/89 73/77/73
f 73/77/73 89/94/89 90/95/90 74/78/74
f 74/78/74 90/95/90 91/96/91 75/79/75
f 75/79/75 91/96/91 92/97/92 76/80/76
f 76/80/76 92/97/92 93/98/93 77/81/77
f 77/81/77 93/98/93 94/99/94 78/82/78
f 78/82/78 94/99/94 95/100/95 79/83/79
f 79/83/79 95/100/95 96/101/96 80/84/80
f 80/84/80 96/101/96 81/102/81 65/85/65
f 81/86/81 97/103/97 98/104/98 82/87/82
f 82/87/82 98/104/98 99/105/99 83/88/83
f 83/88/83 99/105/99 100/106/100 84/89/84
f 84/89/84 100/106/100 101/107/101 85/90/85
f 85/90/85 101/107/101 102/108/102 86/91/86
f 86/91/86 102/108/102 103/109/103 87/92/87
f 87/92/87 103/109/103 104/110/104 88/93/88
f 88/93/88 104/110/104 105/111/105 89/94/89
f 89/94/89 105/111/105 106/112/106 90/95/90
f 90/95/90 106/112/106 107/113/107 91/96/91
f 91/96/91 107/113/107 108/114/108 92/97/92
f 92/97/92 108/114/108 109/115/109 93/98/93
f 93/98/93 109/115/109 110/116/110 94/99/94
f 94/99/94 110/116/110 111/117/111 95/100/95
f 95/100/95 111/117/111 112/118/112 96/101/96
f 96/101/96 112/118/112 97/119/97 81/102/81
f 97/103/97 113/120/113 114/121/114 98/104/98
f 98/104/98 114/121/114 115/122/115 99/105/99
f 99/105/99 115/122/115 116/123/116 100/106/100
f 100/106/100 116/123/116 117/124/117 101/107/101
f 101/107/101 117/124/117 118/125/118 102/108/102
f 102/108/102 118/125/118 119/126/119 103/109/103
f 103/109/103 119/126/119 120/127/120 104/110/104
f 104/110/104 120/127/120 121/128/121 105/111/105
f 105/111/105 121/128/121 122/129/122 106/112/106
f 106/112/106 122/129/122 123/130/123 107/113/107
f 107/113/107 123/130/123 124/131/124 108/114/108
f 108/114/108 124/131/124 125/132/125 109/115/109
f 109/115/109 125/132/125 126/133/126 110/116/110
f 110/116/110 126/133/126 127/134/127 111/117/111
f 111/117/111 127/134/127 128/135/128 112/118/112
f 112/118/112 128/135/128 113/136/113 97/119/97
f 113/120/113 129/137/129 130/138/130 114/121/114
f 114/121/114 130/138/130 131/139/131 115/122/115
f 115/122/115 131/139/131 132/140/132 116/123/116
f 116/123/116 132/140/132 133/141/133 117/124/117
f 117/124/117 133/141/133 134/142/134 118/125/118
f 118/125/118 134/142/134 135/143/135 119/126/119
f 119/126/119 135/143/135 136/144/136 120/127/120
f 120/127/120 136/144/136 137/145/137 121/128/121
f 121/128/121 137/145/137 138/146/138 122/129/122
f 122/129/122 138/146/138 139/147/139 123/130/123
f 123/130/123 139/147/139 140/148/140 124/131/124
f 124/131/124 140/148/140 141/149/141 125/132/125
f 125/132/125 141/149/141 142/150/142 126/133/126
f 126/133/126 142/150/142 143/151/143 127/134/127
f 127/134/127 143/151/143 144/152/144 128/135/128
f 128/135/128 144/152/144 129/153/129 113/136/113
f 129/137/129 145/154/145 146/155/146 130/138/130
f 130/138/130 146/155/146 147/156/147 131/139/131
f 131/139/131 147/156/147 148/157/148 132/140/132
f 132/140/132 148/157/148 149/158/149 133/141/133
f 133/141/133 149/158/149 150/159/150 134/142/134
f 134/142/134 150/159/150 151/160/151 135/143/135
f 135/143/135 151/160/151 152/161/152 136/144/136
f 136/144/136 152/161/152 153/162/153 137/145/137
f 137/145/137 153/162/153 154/163/154 138/146/138
f 138/146/138 154/163/154 155/164/155 139/147/139
f 139/147/139 155/164/155 156/165/156 140/148/140
f 140/148/140 156/165/156 157/166/157 141/149/141
f 141/149/141 157/166/157 158/167/158 142/150/142
f 142/150/142 158/167/158 159/168/159 143/151/143
f 143/151/143 159/168/159 160/169/160 144/152/144
f 144/152/144 160/169/160 145/170/145 129/153/129
f 145/154/145 161/171/161 162/172/162 146/155/146
f 146/155/146 162/172/162 163/173/163 147/156/147
f 147/156/147 163/173/163 164/174/164 148/157/148
f 148/157/148 164/174/164 165/175/165 149/158/149
f 149/158/149 165/175/165 166/176/166 150/159/150
f 150/159/150 166/176/166 167/177/167 151/160/151
f 151/160/151 167/177/167 168/178/168 152/161/152
f 152/161/152 168/178/168 169/179/169 153/162/153
f 153/162/153 169/179/169 170/180/170 154/163/154
f 154/163/154 170/180/170 171/181/171 155/164/155
f 155/164/155 171/181/171 172/182/172 156/165/156
f 156/165/156 172/182/172 173/183/173 157/166/157
f 157/166/157 173/183/173 174/184/174 158/167/158
f 158/167/158 174/184/174 175/185/175 159/168/159
f 159/168/159 175/185/175 176/186/176 160/169/160
f 160/169/160 176/186/176 161/187/161 145/170/145
f 161/171/161 177/188/177 178/189/178 162/172/162
f 162/172/162 178/189/178 179/190/179 163/173/163
f 163/173/163 179/190/179 180/191/180 164/174/164
f 164/174/164 180/191/180 181/192/181 165/175/165
f 165/175/165 181/192/181 182/193/182 166/176/166
f 166/176/166 182/193/182 183/194/183 167/177/167
f 167/177/167 183/194/183 184/195/184 168/178/168
f 168/178/168 184/195/184 185/196/185 169/179/169
f 169/179/169 185/196/185 186/197/186 170/180/170
f 170/180/170 186/197/186 187/198/187 171/181/171
f 171/181/171 187/198/187 188/199/188 172/182/172
f 172/182/172 188/199/188 189/200/189 173/183/173
f 173/183/173 189/200/189 190/201/190 174/184/174
f 174/184/174 190/201/190 191/202/191 175/185/175
f 175/185/175 191/202/191 192/203/192 176/186/176
f 176/186/176 192/203/192 177/204/177 161/187/161
f 177/188/177 193/205/193 178/189/178
f 178/189/178 193/206/193 179/190/179
f 179/190/179 193/207/193 180/191/180
f 180/191/180 193/208/193 181/192/181
f 181/192/181 193/209/193 182/193/182
f 182/193/182 193/210/193 183/194/183
f 183/194/183 193/211/193 184/195/184
f 184/195/184 193/212/193 185/196/185
f 185/196/185 193/213/193 186/197/186
f 186/197/186 193/214/193 187/198/187
f 187/198/187 193/215/193 188/199/188
f 188/199/188 193/216/193 189/200/189
f 189/200/189 193/217/193 190/201/190
f 190/201/190 193/218/193 191/202/191
f 191/202/191 193/219/193 192/203/192
f 192/203/192 193/220/193 177/204/177
